<?xml version="1.0" encoding="UTF-8" standalone="no"?>
<!-- Created with Inkscape (http://www.inkscape.org/) -->

<svg
   xmlns:dc="http://purl.org/dc/elements/1.1/"
   xmlns:cc="http://creativecommons.org/ns#"
   xmlns:rdf="http://www.w3.org/1999/02/22-rdf-syntax-ns#"
   xmlns:svg="http://www.w3.org/2000/svg"
   xmlns="http://www.w3.org/2000/svg"
   xmlns:sodipodi="http://sodipodi.sourceforge.net/DTD/sodipodi-0.dtd"
   xmlns:inkscape="http://www.inkscape.org/namespaces/inkscape"
   width="1024"
   height="768"
   id="svg2"
   version="1.1"
   inkscape:version="0.48.4 r9939"
   sodipodi:docname="pine.svg">
  <defs
     id="defs4" />
  <sodipodi:namedview
     id="base"
     pagecolor="#ffffff"
     bordercolor="#666666"
     borderopacity="1.0"
     inkscape:pageopacity="0.0"
     inkscape:pageshadow="2"
     inkscape:zoom="1.4142136"
     inkscape:cx="396.87339"
     inkscape:cy="566.0835"
     inkscape:document-units="px"
     inkscape:current-layer="layer1"
     showgrid="true"
     inkscape:window-width="1920"
     inkscape:window-height="1006"
     inkscape:window-x="-2"
     inkscape:window-y="-2"
     inkscape:window-maximized="1"
     showguides="true"
     inkscape:guide-bbox="true"
     guidetolerance="20"
     inkscape:snap-bbox="true">
    <inkscape:grid
       type="xygrid"
       id="grid3004"
       empspacing="20"
       visible="true"
       enabled="true"
       snapvisiblegridlinesonly="true"
       color="#000000"
       opacity="0.0627451"
       empcolor="#0000ff"
       empopacity="0.1254902"
       spacingx="0.5px"
       spacingy="0.5px" />
  </sodipodi:namedview>
  <metadata
     id="metadata7">
    <rdf:RDF>
      <cc:Work
         rdf:about="">
        <dc:format>image/svg+xml</dc:format>
        <dc:type
           rdf:resource="http://purl.org/dc/dcmitype/StillImage" />
        <dc:title />
      </cc:Work>
    </rdf:RDF>
  </metadata>
  <g
     inkscape:label="Layer 1"
     inkscape:groupmode="layer"
     id="layer1"
     transform="translate(0,-284.36215)">
    <text
       xml:space="preserve"
       style="font-size:16px;font-style:normal;font-variant:normal;font-weight:normal;font-stretch:normal;line-height:125%;letter-spacing:0px;word-spacing:0px;fill:#222222;fill-opacity:1;stroke:none;font-family:PT Sans;-inkscape-font-specification:PT Sans"
       x="30"
       y="332.36215"
       id="text3392"
       sodipodi:linespacing="125%"><tspan
         sodipodi:role="line"
         id="tspan3394"
         x="30"
         y="332.36215">пункт №1</tspan></text>
    <text
       xml:space="preserve"
       style="font-size:16px;font-style:normal;font-variant:normal;font-weight:normal;font-stretch:normal;line-height:125%;letter-spacing:0px;word-spacing:0px;fill:#222222;fill-opacity:1;stroke:none;font-family:PT Sans;-inkscape-font-specification:PT Sans"
       x="50"
       y="352.36215"
       id="text3396"
       sodipodi:linespacing="125%"><tspan
         sodipodi:role="line"
         id="tspan3398"
         x="50"
         y="352.36215">пункт №1.1</tspan></text>
    <text
       xml:space="preserve"
       style="font-size:16px;font-style:normal;font-variant:normal;font-weight:normal;font-stretch:normal;line-height:125%;letter-spacing:0px;word-spacing:0px;fill:#222222;fill-opacity:1;stroke:none;font-family:PT Sans;-inkscape-font-specification:PT Sans"
       x="50"
       y="372.36215"
       id="text3400"
       sodipodi:linespacing="125%"><tspan
         sodipodi:role="line"
         id="tspan3402"
         x="50"
         y="372.36215">пункт №1.2</tspan></text>
    <text
       xml:space="preserve"
       style="font-size:16px;font-style:normal;font-variant:normal;font-weight:normal;font-stretch:normal;line-height:125%;letter-spacing:0px;word-spacing:0px;fill:#222222;fill-opacity:1;stroke:none;font-family:PT Sans;-inkscape-font-specification:PT Sans"
       x="70"
       y="392.36215"
       id="text3404"
       sodipodi:linespacing="125%"><tspan
         sodipodi:role="line"
         id="tspan3406"
         x="70"
         y="392.36215">пункт №1.2.1</tspan></text>
    <text
       xml:space="preserve"
       style="font-size:16px;font-style:normal;font-variant:normal;font-weight:normal;font-stretch:normal;line-height:125%;letter-spacing:0px;word-spacing:0px;fill:#222222;fill-opacity:1;stroke:none;font-family:PT Sans;-inkscape-font-specification:PT Sans"
       x="70"
       y="412.36215"
       id="text3408"
       sodipodi:linespacing="125%"><tspan
         sodipodi:role="line"
         id="tspan3410"
         x="70"
         y="412.36215">пункт №1.2.2</tspan></text>
    <text
       xml:space="preserve"
       style="font-size:16px;font-style:normal;font-variant:normal;font-weight:normal;font-stretch:normal;line-height:125%;letter-spacing:0px;word-spacing:0px;fill:#222222;fill-opacity:1;stroke:none;font-family:PT Sans;-inkscape-font-specification:PT Sans"
       x="70"
       y="432.36215"
       id="text3412"
       sodipodi:linespacing="125%"><tspan
         sodipodi:role="line"
         id="tspan3414"
         x="70"
         y="432.36215">пункт №1.2.3</tspan></text>
    <text
       xml:space="preserve"
       style="font-size:16px;font-style:normal;font-variant:normal;font-weight:normal;font-stretch:normal;line-height:125%;letter-spacing:0px;word-spacing:0px;fill:#222222;fill-opacity:1;stroke:none;font-family:PT Sans;-inkscape-font-specification:PT Sans"
       x="30"
       y="452.36215"
       id="text3416"
       sodipodi:linespacing="125%"><tspan
         sodipodi:role="line"
         id="tspan3418"
         x="30"
         y="452.36215">пункт №2</tspan></text>
    <text
       xml:space="preserve"
       style="font-size:16px;font-style:normal;font-variant:normal;font-weight:normal;font-stretch:normal;line-height:125%;letter-spacing:0px;word-spacing:0px;fill:#222222;fill-opacity:1;stroke:none;font-family:PT Sans;-inkscape-font-specification:PT Sans"
       x="30"
       y="472.36215"
       id="text3420"
       sodipodi:linespacing="125%"><tspan
         sodipodi:role="line"
         id="tspan3422"
         x="30"
         y="472.36215">пункт №3</tspan></text>
    <text
       xml:space="preserve"
       style="font-size:16px;font-style:normal;font-variant:normal;font-weight:normal;font-stretch:normal;line-height:125%;letter-spacing:0px;word-spacing:0px;fill:#222222;fill-opacity:1;stroke:none;font-family:PT Sans;-inkscape-font-specification:PT Sans"
       x="50"
       y="492.36215"
       id="text3424"
       sodipodi:linespacing="125%"><tspan
         sodipodi:role="line"
         id="tspan3426"
         x="50"
         y="492.36215">пункт №3.1</tspan></text>
    <text
       xml:space="preserve"
       style="font-size:16px;font-style:normal;font-variant:normal;font-weight:normal;font-stretch:normal;line-height:125%;letter-spacing:0px;word-spacing:0px;fill:#222222;fill-opacity:1;stroke:none;font-family:PT Sans;-inkscape-font-specification:PT Sans"
       x="50"
       y="512.36212"
       id="text3428"
       sodipodi:linespacing="125%"><tspan
         sodipodi:role="line"
         id="tspan3430"
         x="50"
         y="512.36212">пункт №3.2</tspan></text>
    <text
       xml:space="preserve"
       style="font-size:16px;font-style:normal;font-variant:normal;font-weight:normal;font-stretch:normal;line-height:125%;letter-spacing:0px;word-spacing:0px;fill:#222222;fill-opacity:1;stroke:none;font-family:PT Sans;-inkscape-font-specification:PT Sans"
       x="50"
       y="532.36212"
       id="text3432"
       sodipodi:linespacing="125%"><tspan
         sodipodi:role="line"
         id="tspan3434"
         x="50"
         y="532.36212">пункт №3.3</tspan></text>
    <text
       xml:space="preserve"
       style="font-size:16px;font-style:normal;font-variant:normal;font-weight:normal;font-stretch:normal;line-height:125%;letter-spacing:0px;word-spacing:0px;fill:#222222;fill-opacity:1;stroke:none;font-family:PT Sans;-inkscape-font-specification:PT Sans"
       x="70"
       y="552.36212"
       id="text3436"
       sodipodi:linespacing="125%"><tspan
         sodipodi:role="line"
         id="tspan3438"
         x="70"
         y="552.36212">пункт №3.3.1</tspan></text>
    <text
       xml:space="preserve"
       style="font-size:16px;font-style:normal;font-variant:normal;font-weight:normal;font-stretch:normal;line-height:125%;letter-spacing:0px;word-spacing:0px;fill:#222222;fill-opacity:1;stroke:none;font-family:PT Sans;-inkscape-font-specification:PT Sans"
       x="90"
       y="572.36212"
       id="text3440"
       sodipodi:linespacing="125%"><tspan
         sodipodi:role="line"
         id="tspan3442"
         x="90"
         y="572.36212">пункт №3.3.1.1</tspan></text>
    <text
       xml:space="preserve"
       style="font-size:16px;font-style:normal;font-variant:normal;font-weight:normal;font-stretch:normal;line-height:125%;letter-spacing:0px;word-spacing:0px;fill:#222222;fill-opacity:1;stroke:none;font-family:PT Sans;-inkscape-font-specification:PT Sans"
       x="90"
       y="592.36212"
       id="text3444"
       sodipodi:linespacing="125%"><tspan
         sodipodi:role="line"
         id="tspan3446"
         x="90"
         y="592.36212">пункт №3.3.1.2</tspan></text>
    <text
       xml:space="preserve"
       style="font-size:16px;font-style:normal;font-variant:normal;font-weight:normal;font-stretch:normal;line-height:125%;letter-spacing:0px;word-spacing:0px;fill:#222222;fill-opacity:1;stroke:none;font-family:PT Sans;-inkscape-font-specification:PT Sans"
       x="70"
       y="612.36212"
       id="text3448"
       sodipodi:linespacing="125%"><tspan
         sodipodi:role="line"
         id="tspan3450"
         x="70"
         y="612.36212">пункт №3.3.2</tspan></text>
    <text
       xml:space="preserve"
       style="font-size:16px;font-style:normal;font-variant:normal;font-weight:normal;font-stretch:normal;line-height:125%;letter-spacing:0px;word-spacing:0px;fill:#222222;fill-opacity:1;stroke:none;font-family:PT Sans;-inkscape-font-specification:PT Sans"
       x="30"
       y="632.36212"
       id="text3452"
       sodipodi:linespacing="125%"><tspan
         sodipodi:role="line"
         id="tspan3454"
         x="30"
         y="632.36212">пункт №4</tspan></text>
    <text
       xml:space="preserve"
       style="font-size:16px;font-style:normal;font-variant:normal;font-weight:normal;font-stretch:normal;line-height:125%;letter-spacing:0px;word-spacing:0px;fill:#222222;fill-opacity:1;stroke:none;font-family:PT Sans;-inkscape-font-specification:PT Sans"
       x="30"
       y="652.36212"
       id="text3456"
       sodipodi:linespacing="125%"><tspan
         sodipodi:role="line"
         id="tspan3458"
         x="30"
         y="652.36212">пункт №5</tspan></text>
    <text
       xml:space="preserve"
       style="font-size:16px;font-style:normal;font-variant:normal;font-weight:normal;font-stretch:normal;line-height:125%;letter-spacing:0px;word-spacing:0px;fill:#222222;fill-opacity:1;stroke:none;font-family:PT Sans;-inkscape-font-specification:PT Sans"
       x="50"
       y="672.36212"
       id="text3460"
       sodipodi:linespacing="125%"><tspan
         sodipodi:role="line"
         id="tspan3462"
         x="50"
         y="672.36212">пункт №5.1</tspan></text>
    <path
       id="rect4329"
       style="opacity:0.98000004;fill:#222222;fill-opacity:1;stroke:none"
       d="m 18,327.36215 5,0 0,1 -5,0 z m -2,-4 0,9 9,0 0,-9 -9,0 z m 1,1 7,0 0,7 -7,0 0,-7 z"
       inkscape:connector-curvature="0" />
    <path
       id="rect4335"
       transform="translate(0,284.36215)"
       style="opacity:0.98000004;fill:#222222;fill-opacity:1;stroke:none"
       d="m 18,163 5,0 0,1 -5,0 z m 2,-2 1,0 0,5 -1,0 z m -4,-2 0,9 9,0 0,-9 -9,0 z m 1,1 7,0 0,7 -7,0 0,-7 z" />
    <path
       id="path4350-7"
       style="opacity:0.98000004;fill:#222222;fill-opacity:1;stroke:none"
       d="m 40.5,343.36215 c -2.485281,0 -4.5,2.01472 -4.5,4.5 0,2.48528 2.014719,4.5 4.5,4.5 2.485281,0 4.5,-2.01472 4.5,-4.5 0,-2.48528 -2.014719,-4.5 -4.5,-4.5 z m 0,1 c 1.932997,0 3.5,1.567 3.5,3.5 0,1.93299 -1.567003,3.5 -3.5,3.5 -1.932997,0 -3.5,-1.56701 -3.5,-3.5 0,-1.933 1.567003,-3.5 3.5,-3.5 z"
       inkscape:connector-curvature="0"
       sodipodi:nodetypes="ssssssssss" />
    <path
       id="path4350-7-1"
       style="opacity:0.98000004;fill:#222222;fill-opacity:1;stroke:none"
       d="m 60.5,383.36215 c -2.485281,0 -4.5,2.01472 -4.5,4.5 0,2.48528 2.014719,4.5 4.5,4.5 2.485281,0 4.5,-2.01472 4.5,-4.5 0,-2.48528 -2.014719,-4.5 -4.5,-4.5 z m 0,1 c 1.932997,0 3.5,1.567 3.5,3.5 0,1.93299 -1.567003,3.5 -3.5,3.5 -1.932997,0 -3.5,-1.56701 -3.5,-3.5 0,-1.933 1.567003,-3.5 3.5,-3.5 z"
       inkscape:connector-curvature="0"
       sodipodi:nodetypes="ssssssssss" />
    <path
       id="path4350-7-5"
       style="opacity:0.98000004;fill:#222222;fill-opacity:1;stroke:none"
       d="m 60.5,403.36215 c -2.485281,0 -4.5,2.01472 -4.5,4.5 0,2.48528 2.014719,4.5 4.5,4.5 2.485281,0 4.5,-2.01472 4.5,-4.5 0,-2.48528 -2.014719,-4.5 -4.5,-4.5 z m 0,1 c 1.932997,0 3.5,1.567 3.5,3.5 0,1.93299 -1.567003,3.5 -3.5,3.5 -1.932997,0 -3.5,-1.56701 -3.5,-3.5 0,-1.933 1.567003,-3.5 3.5,-3.5 z"
       inkscape:connector-curvature="0"
       sodipodi:nodetypes="ssssssssss" />
    <path
       id="path4350-7-55"
       style="opacity:0.98000004;fill:#222222;fill-opacity:1;stroke:none"
       d="m 60.5,423.36215 c -2.485281,0 -4.5,2.01472 -4.5,4.5 0,2.48528 2.014719,4.5 4.5,4.5 2.485281,0 4.5,-2.01472 4.5,-4.5 0,-2.48528 -2.014719,-4.5 -4.5,-4.5 z m 0,1 c 1.932997,0 3.5,1.567 3.5,3.5 0,1.93299 -1.567003,3.5 -3.5,3.5 -1.932997,0 -3.5,-1.56701 -3.5,-3.5 0,-1.933 1.567003,-3.5 3.5,-3.5 z"
       inkscape:connector-curvature="0"
       sodipodi:nodetypes="ssssssssss" />
    <path
       id="path4350-7-9"
       style="opacity:0.98000004;fill:#222222;fill-opacity:1;stroke:none"
       d="m 40.5,483.36215 c -2.485281,0 -4.5,2.01472 -4.5,4.5 0,2.48528 2.014719,4.5 4.5,4.5 2.485281,0 4.5,-2.01472 4.5,-4.5 0,-2.48528 -2.014719,-4.5 -4.5,-4.5 z m 0,1 c 1.932997,0 3.5,1.567 3.5,3.5 0,1.93299 -1.567003,3.5 -3.5,3.5 -1.932997,0 -3.5,-1.56701 -3.5,-3.5 0,-1.933 1.567003,-3.5 3.5,-3.5 z"
       inkscape:connector-curvature="0"
       sodipodi:nodetypes="ssssssssss" />
    <path
       id="path4350-7-58"
       style="opacity:0.98000004;fill:#222222;fill-opacity:1;stroke:none"
       d="m 80.5,563.36215 c -2.485281,0 -4.5,2.01472 -4.5,4.5 0,2.48528 2.014719,4.5 4.5,4.5 2.485281,0 4.5,-2.01472 4.5,-4.5 0,-2.48528 -2.014719,-4.5 -4.5,-4.5 z m 0,1 c 1.932997,0 3.5,1.567 3.5,3.5 0,1.93299 -1.567003,3.5 -3.5,3.5 -1.932997,0 -3.5,-1.56701 -3.5,-3.5 0,-1.933 1.567003,-3.5 3.5,-3.5 z"
       inkscape:connector-curvature="0"
       sodipodi:nodetypes="ssssssssss" />
    <path
       id="path4350-7-56"
       style="opacity:0.98000004;fill:#222222;fill-opacity:1;stroke:none"
       d="m 80.5,583.36215 c -2.485281,0 -4.5,2.01472 -4.5,4.5 0,2.48528 2.014719,4.5 4.5,4.5 2.485281,0 4.5,-2.01472 4.5,-4.5 0,-2.48528 -2.014719,-4.5 -4.5,-4.5 z m 0,1 c 1.932997,0 3.5,1.567 3.5,3.5 0,1.93299 -1.567003,3.5 -3.5,3.5 -1.932997,0 -3.5,-1.56701 -3.5,-3.5 0,-1.933 1.567003,-3.5 3.5,-3.5 z"
       inkscape:connector-curvature="0"
       sodipodi:nodetypes="ssssssssss" />
    <path
       id="path4350-7-4"
       style="opacity:0.98000004;fill:#222222;fill-opacity:1;stroke:none"
       d="m 60.5,603.36215 c -2.485281,0 -4.5,2.01472 -4.5,4.5 0,2.48528 2.014719,4.5 4.5,4.5 2.485281,0 4.5,-2.01472 4.5,-4.5 0,-2.48528 -2.014719,-4.5 -4.5,-4.5 z m 0,1 c 1.932997,0 3.5,1.567 3.5,3.5 0,1.93299 -1.567003,3.5 -3.5,3.5 -1.932997,0 -3.5,-1.56701 -3.5,-3.5 0,-1.933 1.567003,-3.5 3.5,-3.5 z"
       inkscape:connector-curvature="0"
       sodipodi:nodetypes="ssssssssss" />
    <path
       inkscape:connector-curvature="0"
       id="rect4335-1"
       style="opacity:0.98000004;fill:#222222;fill-opacity:1;stroke:none"
       d="m 38,507.36215 5,0 0,1 -5,0 z m 2,-2 1,0 0,5 -1,0 z m -4,-2 0,9 9,0 0,-9 -9,0 z m 1,1 7,0 0,7 -7,0 0,-7 z" />
    <path
       inkscape:connector-curvature="0"
       id="rect4335-4"
       style="opacity:0.98000004;fill:#222222;fill-opacity:1;stroke:none"
       d="m 18,627.36215 5,0 0,1 -5,0 z m 2,-2 1,0 0,5 -1,0 z m -4,-2 0,9 9,0 0,-9 -9,0 z m 1,1 7,0 0,7 -7,0 0,-7 z" />
    <path
       id="rect4329-8"
       style="opacity:0.98000004;fill:#222222;fill-opacity:1;stroke:none"
       d="m 38,367.36215 5,0 0,1 -5,0 z m -2,-4 0,9 9,0 0,-9 -9,0 z m 1,1 7,0 0,7 -7,0 0,-7 z"
       inkscape:connector-curvature="0" />
    <path
       id="rect4329-7"
       style="opacity:0.98000004;fill:#222222;fill-opacity:1;stroke:none"
       d="m 38,527.36215 5,0 0,1 -5,0 z m -2,-4 0,9 9,0 0,-9 -9,0 z m 1,1 7,0 0,7 -7,0 0,-7 z"
       inkscape:connector-curvature="0" />
    <path
       id="rect4329-2"
       style="opacity:0.98000004;fill:#222222;fill-opacity:1;stroke:none"
       d="m 58,547.36215 5,0 0,1 -5,0 z m -2,-4 0,9 9,0 0,-9 -9,0 z m 1,1 7,0 0,7 -7,0 0,-7 z"
       inkscape:connector-curvature="0" />
    <path
       id="rect4329-1"
       style="opacity:0.98000004;fill:#222222;fill-opacity:1;stroke:none"
       d="m 18,647.36215 5,0 0,1 -5,0 z m -2,-4 0,9 9,0 0,-9 -9,0 z m 1,1 7,0 0,7 -7,0 0,-7 z"
       inkscape:connector-curvature="0" />
    <path
       id="path4350-7-4-1"
       style="opacity:0.98000004;fill:#222222;fill-opacity:1;stroke:none"
       d="m 40.5,663.36215 c -2.485281,0 -4.5,2.01472 -4.5,4.5 0,2.48528 2.014719,4.5 4.5,4.5 2.485281,0 4.5,-2.01472 4.5,-4.5 0,-2.48528 -2.014719,-4.5 -4.5,-4.5 z m 0,1 c 1.932997,0 3.5,1.567 3.5,3.5 0,1.93299 -1.567003,3.5 -3.5,3.5 -1.932997,0 -3.5,-1.56701 -3.5,-3.5 0,-1.933 1.567003,-3.5 3.5,-3.5 z"
       inkscape:connector-curvature="0"
       sodipodi:nodetypes="ssssssssss" />
    <path
       style="fill:none;stroke:#444444;stroke-width:0.50000000000000000;stroke-miterlimit:4;stroke-opacity:1;stroke-dasharray:none;stroke-dashoffset:0"
       d="m 20.5,48 0,15.5 15.5,0 0,0"
       id="path4310"
       inkscape:connector-curvature="0"
       transform="translate(0,284.36215)" />
    <path
       style="fill:none;stroke:#444444;stroke-width:0.5;stroke-miterlimit:4;stroke-opacity:1;stroke-dasharray:none;stroke-dashoffset:0"
       d="m 20.5,48 0,35.5 15.5,0"
       id="path4312"
       inkscape:connector-curvature="0"
       transform="translate(0,284.36215)" />
    <path
       style="fill:none;stroke:#444444;stroke-width:0.5;stroke-miterlimit:4;stroke-opacity:1;stroke-dasharray:none;stroke-dashoffset:0"
       d="m 40.5,88 0,15.5 15.5,0 0,0"
       id="path4314"
       inkscape:connector-curvature="0"
       transform="translate(0,284.36215)" />
    <path
       style="fill:none;stroke:#444444;stroke-width:0.5;stroke-miterlimit:4;stroke-opacity:1;stroke-dasharray:none;stroke-dashoffset:0"
       d="m 40.5,103.5 0,40 15.5,0 0,0"
       id="path4316"
       inkscape:connector-curvature="0"
       transform="translate(0,284.36215)" />
    <path
       style="fill:none;stroke:#444444;stroke-width:0.5;stroke-miterlimit:4;stroke-opacity:1;stroke-dasharray:none;stroke-dashoffset:0"
       d="m 56,123.5 -15.5,0 0,0"
       id="path4318"
       inkscape:connector-curvature="0"
       transform="translate(0,284.36215)" />
    <path
       id="rect4329-6"
       style="opacity:0.98000004;fill:#222222;fill-opacity:1;stroke:none"
       d="m 18,467.36215 5,0 0,1 -5,0 z m -2,-4 0,9 9,0 0,-9 -9,0 z m 1,1 7,0 0,7 -7,0 0,-7 z"
       inkscape:connector-curvature="0" />
    <path
       style="fill:none;stroke:#444444;stroke-width:0.5;stroke-miterlimit:4;stroke-opacity:1;stroke-dasharray:none;stroke-dashoffset:0"
       d="m 20.5,188 0,55.5 15.5,0"
       id="path4340"
       inkscape:connector-curvature="0"
       transform="translate(0,284.36215)" />
    <path
       style="fill:none;stroke:#444444;stroke-width:0.5;stroke-miterlimit:4;stroke-opacity:1;stroke-dasharray:none;stroke-dashoffset:0"
       d="m 36,223.5 -15.5,0"
       id="path4342"
       inkscape:connector-curvature="0"
       transform="translate(0,284.36215)" />
    <path
       style="fill:none;stroke:#444444;stroke-width:0.5;stroke-miterlimit:4;stroke-opacity:1;stroke-dasharray:none;stroke-dashoffset:0"
       d="m 36,203.5 -15.5,0"
       id="path4344"
       inkscape:connector-curvature="0"
       transform="translate(0,284.36215)" />
    <path
       style="fill:none;stroke:#444444;stroke-width:0.5;stroke-miterlimit:4;stroke-opacity:1;stroke-dasharray:none;stroke-dashoffset:0"
       d="m 40.5,248 0,75.5 15.5,0"
       id="path4346"
       inkscape:connector-curvature="0"
       transform="translate(0,284.36215)" />
    <path
       style="fill:none;stroke:#444444;stroke-width:0.5;stroke-miterlimit:4;stroke-opacity:1;stroke-dasharray:none;stroke-dashoffset:0"
       d="m 56,263.5 -15.5,0"
       id="path4348"
       inkscape:connector-curvature="0"
       transform="translate(0,284.36215)" />
    <path
       style="fill:none;stroke:#444444;stroke-width:0.5;stroke-miterlimit:4;stroke-opacity:1;stroke-dasharray:none;stroke-dashoffset:0"
       d="m 60.5,268 0,15.5 15.5,0"
       id="path4351"
       inkscape:connector-curvature="0"
       transform="translate(0,284.36215)" />
    <path
       style="fill:none;stroke:#444444;stroke-width:0.5;stroke-miterlimit:4;stroke-opacity:1;stroke-dasharray:none;stroke-dashoffset:0"
       d="m 60.5,283.5 0,20 15.5,0"
       id="path4353"
       inkscape:connector-curvature="0"
       transform="translate(0,284.36215)" />
    <path
       style="fill:none;stroke:#444444;stroke-width:0.5;stroke-miterlimit:4;stroke-opacity:1;stroke-dasharray:none;stroke-dashoffset:0"
       d="m 20.5,368 0,15.5 15.5,0"
       id="path4357"
       inkscape:connector-curvature="0"
       transform="translate(0,284.36215)" />
  </g>
</svg>
